<?xml version="1.0" encoding="utf-8"?>
<!-- Generator: Adobe Illustrator 24.0.0, SVG Export Plug-In . SVG Version: 6.00 Build 0)  -->
<svg version="1.1" id="Layer_1" xmlns="http://www.w3.org/2000/svg" xmlns:xlink="http://www.w3.org/1999/xlink" x="0px" y="0px"
	 viewBox="0 0 512 512" style="enable-background:new 0 0 512 512;" xml:space="preserve">
<style type="text/css">
	.st0{fill:url(#Ellipse_1_copy_1_);}
	.st1{fill-rule:evenodd;clip-rule:evenodd;fill:url(#SVGID_1_);}
	.st2{fill-rule:evenodd;clip-rule:evenodd;fill:#E3EEFA;}
</style>
<linearGradient id="Ellipse_1_copy_1_" gradientUnits="userSpaceOnUse" x1="41.7785" y1="218.7161" x2="470.2215" y2="293.2839">
	<stop  offset="0" style="stop-color:#80CBC4"/>
	<stop  offset="1" style="stop-color:#1DAFD9"/>
</linearGradient>
<circle id="Ellipse_1_copy" class="st0" cx="256" cy="256" r="217.4"/>
<linearGradient id="SVGID_1_" gradientUnits="userSpaceOnUse" x1="2.8842" y1="217.4438" x2="509.1158" y2="294.5562">
	<stop  offset="0" style="stop-color:#07364A"/>
	<stop  offset="1" style="stop-color:#0D697D"/>
</linearGradient>
<path class="st1" d="M256,512C114.6,512,0,397.4,0,256S114.6,0,256,0s256,114.6,256,256S397.4,512,256,512z M256,48
	C141.1,48,48,141.1,48,256c0,30.9,6.8,61.4,20.1,89.2l63.7-33.7l123.3-89.4l115.8-23.5l30.1,21.6l-31.1,15.1l-19.8,48.9v40.5
	l21.6,48.9l33.2,27.5c37.9-38.8,59.1-90.9,59.1-145.2C464,141.1,370.9,48,256,48z"/>
<path id="Rounded_Rectangle_1_copy" class="st2" d="M378.3,269.2c14.1,0,21-19.1,12.4-33.7c-36.4,18.2-47.8,68-25.3,111.9
	c10.9,21.3,27.7,37.3,46.4,46.3c-4.1,4.7-8.5,9.2-13,13.5c-19.1-11.3-36.1-29.2-47.5-52.2c-25.2-50.9-14-108.2,24.5-132.2
	c-2.5-1.1-5.2-1.9-7.8-2.6c-28.9-6.5-42.4,30.3-65.7,39.5c-0.4,0.2-0.8,0.3-1.2,0.5c-10.9,36.6-1.1,79.2,30.6,114.4
	c16.1,17.7,35.7,31.7,57.6,41.1c-4.5,3.8-9.2,7.3-14,10.7c-27.2-13.5-51.4-33.8-68.7-59.7c-22.5-33.6-29-70.3-21.3-102.2
	c-15.4,2.4-27.7-0.7-40.2-1.9c-9.1,33.6-4.9,72,14.9,106.4c21.5,37.5,56.6,62.1,94.2,70.4c-7.2,3.9-14.6,7.3-22.2,10.3
	c-34-11.6-65-36.2-85.4-71.3c-21.6-37.1-27.1-78.6-18.5-115.5c-7.6,1.3-15,4-21.6,8.1c-7,4.2-13.4,8.3-19.2,12.4
	c-11.4,40,0.2,86.5,35.2,122.8c25.4,26.1,58.7,43.2,94.8,48.5c-10.4,3.2-21,5.6-31.8,7.1c-33.5-8.5-65.4-29.7-88.1-61.8
	s-31.9-69-28.5-102.9c-11.9,9.4-22,18.3-33,26.6c-3.4,11.1-4.9,22.7-4.2,34.3c2.7,45.5,36.8,83.6,85,102.2
	c-22.8-4.3-44.8-12.5-64.9-24.2c-26.7-26-39.4-63.2-34.1-100c-13.9,8.2-28.3,15.5-43.1,22c-3.8-6.7-7.2-13.6-10.2-20.6
	c11.2-6.1,58.2-32.8,88.5-68.3c37-43.3,94.1-102.7,178.3-100.7C476.4,171.8,434.1,304.9,378.3,269.2z"/>
</svg>
